<svg width="414" height="157" viewBox="0 0 414 157" fill="none" xmlns="http://www.w3.org/2000/svg">
<path d="M48.5698 68.2708L0 47.5668V156.682H414V8.95674L408.218 7.27804L376.994 41.4116L364.274 38.0542L324.955 69.9495L320.33 72.7474L280.433 35.2564L268.29 41.4116L246.318 7.27804H242.271L216.83 35.2564H213.939L196.592 56.5199L176.355 81.7004L171.151 85.0578L159.587 72.1878L135.302 6.15891L129.52 1.68237L120.268 6.15891L103.5 42.5308L97.1397 47.5668L84.419 39.7329L72.8548 42.5308L48.5698 68.2708Z" fill="url(#paint0_linear_14_1002)"/>
<path d="M0 47.6491L45.6117 67.1506C48.4086 68.3465 51.6632 67.2782 53.3511 64.7476C60.0849 54.6521 77.54 31.974 91.7419 43.7718C109.742 58.7246 110.791 -2.2164 131.806 2.23692C142.258 4.45172 144.46 32.8312 153.871 56.5096C160.592 73.419 163.677 82.3108 171.834 83.9292C173.661 84.2919 175.44 83.3347 176.576 81.8575L211.84 35.9925C212.551 35.067 213.852 34.8378 214.837 35.4642C215.824 36.0915 217.126 35.8605 217.837 34.9321L237.813 8.83798C240.417 5.43587 245.645 5.78121 247.779 9.49632L263.708 37.2222C265.286 39.97 268.729 41.0164 271.57 39.6116L278.254 36.3062C280.599 35.1462 283.426 35.6401 285.239 37.5268L316.597 70.1543C318.798 72.4442 322.402 72.6223 324.818 70.5606L361.743 39.0496C363.514 37.5383 365.999 37.1879 368.119 38.1507L372.593 40.1828C375.091 41.3171 378.04 40.6132 379.756 38.473L403.295 9.11349C405.362 6.5359 409.123 6.11397 411.709 8.16964L414 9.99022" stroke="url(#paint1_linear_14_1002)" stroke-width="4"/>
<defs>
<linearGradient id="paint0_linear_14_1002" x1="207" y1="1.68237" x2="207" y2="156.682" gradientUnits="userSpaceOnUse">
<stop stop-color="#00FAFF" stop-opacity="0.12"/>
<stop offset="1" stop-color="#0A9396" stop-opacity="0"/>
</linearGradient>
<linearGradient id="paint1_linear_14_1002" x1="414" y1="1.68231" x2="0.567799" y2="65.0454" gradientUnits="userSpaceOnUse">
<stop stop-color="#0055FF"/>
<stop offset="1" stop-color="#00FFAE"/>
</linearGradient>
</defs>
</svg>
