<svg width="224" height="224" viewBox="0 0 224 224" fill="none" xmlns="http://www.w3.org/2000/svg">
<path d="M112 8.00012C125.658 8.00012 139.181 10.6902 151.799 15.9167C164.417 21.1431 175.882 28.8037 185.539 38.461C195.197 48.1183 202.857 59.5832 208.084 72.2011C213.31 84.8189 216 98.3427 216 112C216 125.658 213.31 139.181 208.084 151.799C202.857 164.417 195.197 175.882 185.539 185.539C175.882 195.197 164.417 202.857 151.799 208.084C139.181 213.31 125.658 216 112 216C98.3427 216 84.819 213.31 72.2011 208.084C59.5833 202.857 48.1184 195.196 38.4611 185.539C28.8038 175.882 21.1432 164.417 15.9168 151.799C10.6903 139.181 8.00024 125.658 8.00024 112C8.00025 98.3426 10.6903 84.8189 15.9168 72.201C21.1433 59.5831 28.8039 48.1183 38.4612 38.461C48.1185 28.8037 59.5834 21.1431 72.2012 15.9166C84.8191 10.6901 98.3428 8.00011 112 8.00012L112 8.00012Z" stroke="#151A20" stroke-width="16" stroke-linecap="round" stroke-linejoin="round"/>
<path d="M86.7382 11.1149C110.079 5.27039 134.723 7.69964 156.473 17.9887C178.223 28.2778 195.733 45.7901 206.019 67.5418C216.304 89.2934 218.73 113.939 212.882 137.278C207.033 160.617 193.273 181.207 173.946 195.539C154.619 209.87 130.921 217.057 106.889 215.874C82.8572 214.692 59.9788 205.213 42.1521 189.054C24.3254 172.894 12.6533 151.053 9.1247 127.252C5.59608 103.451 10.4292 79.1633 22.8006 58.5265" stroke="#0B43BA" stroke-width="16" stroke-linecap="round" stroke-linejoin="round"/>
<path d="M112 28.0001C123.031 28.0001 133.954 30.1728 144.146 34.3942C154.337 38.6156 163.597 44.803 171.397 52.6032C179.197 60.4033 185.385 69.6634 189.606 79.8547C193.828 90.0461 196 100.969 196 112C196 123.031 193.828 133.954 189.606 144.146C185.385 154.337 179.197 163.597 171.397 171.397C163.597 179.197 154.337 185.385 144.146 189.606C133.954 193.827 123.031 196 112 196C100.969 196 90.0462 193.827 79.8548 189.606C69.6635 185.385 60.4034 179.197 52.6032 171.397C44.8031 163.597 38.6157 154.337 34.3943 144.145C30.173 133.954 28.0002 123.031 28.0002 112C28.0002 100.969 30.173 90.046 34.3944 79.8547C38.6158 69.6633 44.8032 60.4032 52.6033 52.6031C60.4034 44.803 69.6635 38.6156 79.8549 34.3942C90.0462 30.1728 100.969 28.0001 112 28.0001L112 28.0001Z" stroke="#151A20" stroke-width="16" stroke-linecap="round" stroke-linejoin="round"/>
<path d="M112 28.0001C128.246 28.0001 144.144 32.7113 157.767 41.5628C171.39 50.4144 182.154 63.0265 188.755 77.8712C195.355 92.716 197.51 109.156 194.957 125.201C192.404 141.245 185.253 156.204 174.37 168.267C163.488 180.33 149.341 188.978 133.643 193.164C117.946 197.35 101.371 196.894 85.9274 191.851C70.4837 186.809 56.8336 177.396 46.6309 164.753C36.4282 152.11 30.1107 136.78 28.4436 120.62" stroke="#FFC300" stroke-width="16" stroke-linecap="round" stroke-linejoin="round"/>
<path d="M112 48.0001C120.405 48.0001 128.727 49.6555 136.492 52.8718C144.257 56.0881 151.312 60.8023 157.255 66.7453C163.198 72.6882 167.912 79.7436 171.129 87.5084C174.345 95.2732 176 103.596 176 112C176 120.405 174.345 128.727 171.129 136.492C167.912 144.257 163.198 151.312 157.255 157.255C151.312 163.198 144.257 167.912 136.492 171.128C128.727 174.345 120.405 176 112 176C103.596 176 95.2733 174.345 87.5085 171.128C79.7436 167.912 72.6883 163.198 66.7454 157.255C60.8024 151.312 56.0882 144.257 52.8719 136.492C49.6556 128.727 48.0002 120.405 48.0002 112C48.0002 103.595 49.6557 95.2732 52.872 87.5084C56.0883 79.7435 60.8025 72.6882 66.7454 66.7453C72.6884 60.8023 79.7437 56.0881 87.5085 52.8718C95.2734 49.6555 103.596 48.0001 112 48.0001L112 48.0001Z" stroke="#151A20" stroke-width="16" stroke-linecap="round" stroke-linejoin="round"/>
<path d="M112 48.0001C121.996 48.0001 131.853 50.3414 140.781 54.8364C149.709 59.3313 157.459 65.855 163.412 73.8847C169.365 81.9143 173.355 91.2267 175.061 101.076C176.767 110.925 176.143 121.036 173.238 130.601C170.333 140.165 165.228 148.916 158.332 156.152C151.436 163.388 142.942 168.908 133.528 172.271C124.115 175.633 114.045 176.744 104.126 175.514C94.206 174.284 84.7122 170.748 76.4052 165.188" stroke="#00D5FF" stroke-width="16" stroke-linecap="round" stroke-linejoin="round"/>
<path d="M92.9104 117.434H93.1331C94.0706 117.434 94.8752 117.32 95.5471 117.094C96.2268 116.859 96.7854 116.524 97.2229 116.086C97.6604 115.649 97.9846 115.113 98.1956 114.481C98.4065 113.84 98.512 113.113 98.512 112.301V109.067C98.512 108.449 98.4495 107.906 98.3245 107.438C98.2073 106.969 98.0354 106.582 97.8088 106.277C97.5901 105.965 97.3323 105.731 97.0354 105.574C96.7463 105.418 96.426 105.34 96.0745 105.34C95.6995 105.34 95.3674 105.434 95.0784 105.621C94.7893 105.801 94.5432 106.047 94.3401 106.359C94.1448 106.672 93.9924 107.031 93.8831 107.438C93.7815 107.836 93.7307 108.254 93.7307 108.692C93.7307 109.129 93.7815 109.547 93.8831 109.945C93.9846 110.336 94.137 110.684 94.3401 110.988C94.5432 111.285 94.7971 111.524 95.1018 111.703C95.4065 111.875 95.7659 111.961 96.1799 111.961C96.5784 111.961 96.9338 111.887 97.2463 111.738C97.5667 111.582 97.8362 111.379 98.0549 111.129C98.2815 110.879 98.4534 110.602 98.5706 110.297C98.6956 109.992 98.7581 109.684 98.7581 109.371L99.8713 109.981C99.8713 110.527 99.7542 111.067 99.5198 111.598C99.2854 112.129 98.9573 112.613 98.5354 113.051C98.1213 113.481 97.6409 113.824 97.094 114.082C96.5471 114.34 95.9612 114.469 95.3362 114.469C94.5393 114.469 93.8323 114.324 93.2151 114.035C92.5979 113.738 92.0745 113.332 91.6448 112.817C91.2229 112.293 90.9026 111.684 90.6838 110.988C90.4651 110.293 90.3557 109.539 90.3557 108.727C90.3557 107.899 90.4885 107.121 90.7542 106.395C91.0276 105.668 91.4143 105.027 91.9143 104.473C92.4221 103.918 93.0276 103.484 93.7307 103.172C94.4417 102.852 95.2307 102.692 96.0979 102.692C96.9651 102.692 97.7542 102.859 98.4651 103.195C99.176 103.531 99.7854 104.008 100.293 104.625C100.801 105.234 101.192 105.965 101.465 106.817C101.746 107.668 101.887 108.613 101.887 109.652V110.824C101.887 111.934 101.766 112.965 101.524 113.918C101.289 114.871 100.934 115.734 100.457 116.508C99.9885 117.274 99.4026 117.93 98.6995 118.477C98.0042 119.024 97.1956 119.442 96.2737 119.731C95.3518 120.02 94.3206 120.164 93.1799 120.164H92.9104V117.434ZM106.692 117.434H106.914C107.852 117.434 108.656 117.32 109.328 117.094C110.008 116.859 110.567 116.524 111.004 116.086C111.442 115.649 111.766 115.113 111.977 114.481C112.188 113.84 112.293 113.113 112.293 112.301V109.067C112.293 108.449 112.231 107.906 112.106 107.438C111.989 106.969 111.817 106.582 111.59 106.277C111.371 105.965 111.114 105.731 110.817 105.574C110.528 105.418 110.207 105.34 109.856 105.34C109.481 105.34 109.149 105.434 108.86 105.621C108.571 105.801 108.324 106.047 108.121 106.359C107.926 106.672 107.774 107.031 107.664 107.438C107.563 107.836 107.512 108.254 107.512 108.692C107.512 109.129 107.563 109.547 107.664 109.945C107.766 110.336 107.918 110.684 108.121 110.988C108.324 111.285 108.578 111.524 108.883 111.703C109.188 111.875 109.547 111.961 109.961 111.961C110.36 111.961 110.715 111.887 111.028 111.738C111.348 111.582 111.617 111.379 111.836 111.129C112.063 110.879 112.235 110.602 112.352 110.297C112.477 109.992 112.539 109.684 112.539 109.371L113.653 109.981C113.653 110.527 113.535 111.067 113.301 111.598C113.067 112.129 112.739 112.613 112.317 113.051C111.903 113.481 111.422 113.824 110.875 114.082C110.328 114.34 109.742 114.469 109.117 114.469C108.321 114.469 107.614 114.324 106.996 114.035C106.379 113.738 105.856 113.332 105.426 112.817C105.004 112.293 104.684 111.684 104.465 110.988C104.246 110.293 104.137 109.539 104.137 108.727C104.137 107.899 104.27 107.121 104.535 106.395C104.809 105.668 105.196 105.027 105.696 104.473C106.203 103.918 106.809 103.484 107.512 103.172C108.223 102.852 109.012 102.692 109.879 102.692C110.746 102.692 111.535 102.859 112.246 103.195C112.957 103.531 113.567 104.008 114.074 104.625C114.582 105.234 114.973 105.965 115.246 106.817C115.528 107.668 115.668 108.613 115.668 109.652V110.824C115.668 111.934 115.547 112.965 115.305 113.918C115.071 114.871 114.715 115.734 114.239 116.508C113.77 117.274 113.184 117.93 112.481 118.477C111.785 119.024 110.977 119.442 110.055 119.731C109.133 120.02 108.102 120.164 106.961 120.164H106.692V117.434ZM118.035 107.121V106.219C118.035 105.57 118.176 104.981 118.457 104.449C118.739 103.918 119.153 103.492 119.699 103.172C120.246 102.852 120.918 102.692 121.715 102.692C122.535 102.692 123.219 102.852 123.766 103.172C124.321 103.492 124.735 103.918 125.008 104.449C125.289 104.981 125.43 105.57 125.43 106.219V107.121C125.43 107.754 125.289 108.336 125.008 108.867C124.735 109.399 124.324 109.824 123.778 110.145C123.231 110.465 122.551 110.625 121.739 110.625C120.934 110.625 120.254 110.465 119.699 110.145C119.153 109.824 118.739 109.399 118.457 108.867C118.176 108.336 118.035 107.754 118.035 107.121ZM120.274 106.219V107.121C120.274 107.395 120.324 107.656 120.426 107.906C120.535 108.149 120.699 108.348 120.918 108.504C121.145 108.652 121.418 108.727 121.739 108.727C122.074 108.727 122.348 108.652 122.559 108.504C122.77 108.348 122.926 108.149 123.028 107.906C123.129 107.656 123.18 107.395 123.18 107.121V106.219C123.18 105.93 123.125 105.664 123.016 105.422C122.914 105.172 122.754 104.973 122.535 104.824C122.324 104.668 122.051 104.59 121.715 104.59C121.403 104.59 121.137 104.668 120.918 104.824C120.699 104.973 120.535 105.172 120.426 105.422C120.324 105.664 120.274 105.93 120.274 106.219ZM126.192 116.719V115.817C126.192 115.176 126.332 114.59 126.614 114.059C126.903 113.527 127.321 113.102 127.867 112.781C128.422 112.461 129.102 112.301 129.906 112.301C130.719 112.301 131.399 112.461 131.946 112.781C132.492 113.102 132.906 113.527 133.188 114.059C133.469 114.59 133.61 115.176 133.61 115.817V116.719C133.61 117.359 133.469 117.945 133.188 118.477C132.914 119.008 132.504 119.434 131.957 119.754C131.41 120.074 130.735 120.234 129.93 120.234C129.117 120.234 128.434 120.074 127.879 119.754C127.324 119.434 126.903 119.008 126.614 118.477C126.332 117.945 126.192 117.359 126.192 116.719ZM128.442 115.817V116.719C128.442 117 128.504 117.266 128.629 117.516C128.754 117.766 128.926 117.965 129.145 118.113C129.371 118.262 129.633 118.336 129.93 118.336C130.305 118.336 130.598 118.262 130.809 118.113C131.02 117.965 131.164 117.766 131.242 117.516C131.328 117.266 131.371 117 131.371 116.719V115.817C131.371 115.535 131.317 115.274 131.207 115.031C131.098 114.781 130.934 114.582 130.715 114.434C130.504 114.277 130.235 114.199 129.906 114.199C129.578 114.199 129.305 114.277 129.086 114.434C128.875 114.582 128.715 114.781 128.606 115.031C128.496 115.274 128.442 115.535 128.442 115.817ZM130.739 105.375L122.406 118.711L120.766 117.844L129.098 104.508L130.739 105.375Z" fill="white"/>
</svg>
