<svg width="24" height="24" viewBox="0 0 24 24" fill="none" xmlns="http://www.w3.org/2000/svg">
<path fill-rule="evenodd" clip-rule="evenodd" d="M0 3.33334C0 2.44928 0.351189 1.60143 0.976311 0.976312C1.60143 0.35119 2.44928 0 3.33333 0H20C21.0609 0 22.0783 0.421428 22.8284 1.17157C23.5786 1.92172 24 2.93914 24 4.00001V22.6667C24.0001 22.9039 23.9368 23.1369 23.8168 23.3415C23.6968 23.5462 23.5244 23.7151 23.3173 23.8309C23.1102 23.9467 22.876 24.0051 22.6388 24.0001C22.4016 23.9952 22.1701 23.927 21.968 23.8027L18.3333 21.5654L14.6987 23.8027C14.4886 23.932 14.2467 24.0004 14 24.0004C13.7533 24.0004 13.5114 23.932 13.3013 23.8027L9.66667 21.5654L6.032 23.8027C5.82994 23.927 5.59837 23.9952 5.36118 24.0001C5.12399 24.0051 4.88978 23.9467 4.6827 23.8309C4.47562 23.7151 4.30318 23.5462 4.18318 23.3415C4.06317 23.1369 3.99993 22.9039 4 22.6667V14.6667H1.33333C0.979711 14.6667 0.640573 14.5262 0.390524 14.2762C0.140476 14.0261 0 13.687 0 13.3334V3.33334ZM6.66667 20.28L8.968 18.864C9.17811 18.7348 9.41997 18.6663 9.66667 18.6663C9.91336 18.6663 10.1552 18.7348 10.3653 18.864L14 21.1014L17.6347 18.864C17.8448 18.7348 18.0866 18.6663 18.3333 18.6663C18.58 18.6663 18.8219 18.7348 19.032 18.864L21.3333 20.28V4.00001C21.3333 3.64638 21.1929 3.30724 20.9428 3.0572C20.6928 2.80715 20.3536 2.66667 20 2.66667H6.6C6.64444 2.88267 6.66667 3.10489 6.66667 3.33334V20.28ZM3.33333 2.66667C3.15652 2.66667 2.98695 2.73691 2.86193 2.86193C2.7369 2.98696 2.66667 3.15653 2.66667 3.33334V12H4V3.33334C4 3.15653 3.92976 2.98696 3.80474 2.86193C3.67971 2.73691 3.51014 2.66667 3.33333 2.66667ZM9.33333 8.00001C9.33333 7.64639 9.47381 7.30725 9.72386 7.0572C9.97391 6.80715 10.313 6.66668 10.6667 6.66668H17.3333C17.687 6.66668 18.0261 6.80715 18.2761 7.0572C18.5262 7.30725 18.6667 7.64639 18.6667 8.00001C18.6667 8.35363 18.5262 8.69277 18.2761 8.94282C18.0261 9.19287 17.687 9.33335 17.3333 9.33335H10.6667C10.313 9.33335 9.97391 9.19287 9.72386 8.94282C9.47381 8.69277 9.33333 8.35363 9.33333 8.00001ZM9.33333 13.3334C9.33333 12.9797 9.47381 12.6406 9.72386 12.3905C9.97391 12.1405 10.313 12 10.6667 12H16C16.3536 12 16.6928 12.1405 16.9428 12.3905C17.1929 12.6406 17.3333 12.9797 17.3333 13.3334C17.3333 13.687 17.1929 14.0261 16.9428 14.2762C16.6928 14.5262 16.3536 14.6667 16 14.6667H10.6667C10.313 14.6667 9.97391 14.5262 9.72386 14.2762C9.47381 14.0261 9.33333 13.687 9.33333 13.3334Z" fill="white"/>
</svg>
