<svg width="42" height="42" viewBox="0 0 42 42" fill="none" xmlns="http://www.w3.org/2000/svg">
<path d="M20.75 0.75C31.796 0.75 40.75 9.704 40.75 20.75C40.75 31.796 31.796 40.75 20.75 40.75C9.70402 40.75 0.750015 31.796 0.750015 20.75C0.746765 18.0895 1.27595 15.4553 2.30639 13.0025C3.33684 10.5497 4.84771 8.32792 6.75001 6.468" stroke="white" stroke-width="1.5" stroke-linecap="round"/>
<path d="M6.75024 20.7499C6.75024 23.5189 7.57133 26.2256 9.10967 28.5279C10.648 30.8302 12.8345 32.6246 15.3927 33.6843C17.9508 34.7439 20.7658 35.0211 23.4815 34.4809C26.1972 33.9407 28.6918 32.6074 30.6497 30.6494C32.6077 28.6915 33.941 26.1969 34.4812 23.4812C35.0214 20.7655 34.7442 17.9505 33.6846 15.3924C32.6249 12.8342 30.8305 10.6477 28.5282 9.10936C26.2259 7.57102 23.5192 6.74994 20.7502 6.74994" stroke="white" stroke-width="1.5" stroke-linecap="round"/>
<path d="M20.75 28.7501C22.8717 28.7501 24.9066 27.9072 26.4069 26.4069C27.9071 24.9066 28.75 22.8718 28.75 20.7501C28.75 18.6283 27.9071 16.5935 26.4069 15.0932C24.9066 13.5929 22.8717 12.7501 20.75 12.7501" stroke="white" stroke-width="1.5" stroke-linecap="round"/>
</svg>
