<svg width="28" height="24" viewBox="0 0 28 24" fill="none" xmlns="http://www.w3.org/2000/svg">
<path d="M1.55556 1.46343V0C0.696889 0 0 0.655616 0 1.46343H1.55556ZM15.2444 1.46343H16.8C16.8 0.655616 16.1031 0 15.2444 0V1.46343ZM15.2444 8.48789V7.02446C14.8319 7.02446 14.4362 7.17864 14.1445 7.45309C13.8528 7.72753 13.6889 8.09976 13.6889 8.48789H15.2444ZM1.55556 2.92686H15.2444V0H1.55556V2.92686ZM13.6889 1.46343V20.1953H16.8V1.46343H13.6889ZM3.11111 17.8538V1.46343H0V17.8538H3.11111ZM15.2444 9.95131H21.4667V7.02446H15.2444V9.95131ZM24.8889 13.1709V17.8538H28V13.1709H24.8889ZM16.8 20.1953V8.48789H13.6889V20.1953H16.8ZM22.1262 20.8158C21.9512 20.9802 21.714 21.0726 21.4667 21.0726C21.2193 21.0726 20.9821 20.9802 20.8071 20.8158L18.6069 22.8857C19.3654 23.5992 20.3941 24 21.4667 24C22.5393 24 23.5679 23.5992 24.3264 22.8857L22.1262 20.8158ZM20.8071 19.5748C20.9821 19.4104 21.2193 19.318 21.4667 19.318C21.714 19.318 21.9512 19.4104 22.1262 19.5748L24.3264 17.5049C23.5679 16.7915 22.5393 16.3906 21.4667 16.3906C20.3941 16.3906 19.3654 16.7915 18.6069 17.5049L20.8071 19.5748ZM7.19289 20.8158C7.01789 20.9802 6.78067 21.0726 6.53333 21.0726C6.286 21.0726 6.04878 20.9802 5.87378 20.8158L3.6736 22.8857C4.43207 23.5992 5.46074 24 6.53333 24C7.60593 24 8.6346 23.5992 9.39307 22.8857L7.19289 20.8158ZM5.87378 19.5748C6.04878 19.4104 6.286 19.318 6.53333 19.318C6.78067 19.318 7.01789 19.4104 7.19289 19.5748L9.39307 17.5049C8.6346 16.7915 7.60593 16.3906 6.53333 16.3906C5.46074 16.3906 4.43207 16.7915 3.6736 17.5049L5.87378 19.5748ZM22.1262 19.5748C22.2135 19.6559 22.2826 19.7525 22.3296 19.8591C22.3767 19.9656 22.4006 20.0799 22.4 20.1953H25.5111C25.5118 19.6956 25.4074 19.2006 25.2041 18.7389C25.0008 18.2772 24.7025 17.8579 24.3264 17.5049L22.1262 19.5748ZM22.4 20.1953C22.4006 20.3107 22.3767 20.425 22.3296 20.5315C22.2826 20.6381 22.2135 20.7347 22.1262 20.8158L24.3264 22.8857C24.7025 22.5328 25.0008 22.1134 25.2041 21.6517C25.4074 21.19 25.5118 20.6951 25.5111 20.1953H22.4ZM18.9778 18.7319H15.2444V21.6587H18.9778V18.7319ZM20.8071 20.8158C20.7199 20.7347 20.6507 20.6381 20.6037 20.5315C20.5567 20.425 20.5328 20.3107 20.5333 20.1953H17.4222C17.4222 21.167 17.818 22.1434 18.6069 22.8857L20.8071 20.8158ZM20.5333 20.1953C20.5328 20.0799 20.5567 19.9656 20.6037 19.8591C20.6507 19.7525 20.7199 19.6559 20.8071 19.5748L18.6069 17.5049C18.2308 17.8579 17.9325 18.2772 17.7292 18.7389C17.5259 19.2006 17.4216 19.6956 17.4222 20.1953H20.5333ZM5.87378 20.8158C5.78653 20.7347 5.71737 20.6381 5.67035 20.5315C5.62334 20.425 5.59942 20.3107 5.6 20.1953H2.48889C2.48889 21.167 2.88462 22.1434 3.6736 22.8857L5.87378 20.8158ZM5.6 20.1953C5.59942 20.0799 5.62334 19.9656 5.67035 19.8591C5.71737 19.7525 5.78653 19.6559 5.87378 19.5748L3.6736 17.5049C3.29748 17.8579 2.99919 18.2772 2.79588 18.7389C2.59257 19.2006 2.48824 19.6956 2.48889 20.1953H5.6ZM15.2444 18.7319H9.02222V21.6587H15.2444V18.7319ZM7.19289 19.5748C7.28014 19.6559 7.3493 19.7525 7.39631 19.8591C7.44333 19.9656 7.46725 20.0799 7.46667 20.1953H10.5778C10.5778 19.2236 10.182 18.2472 9.39307 17.5049L7.19289 19.5748ZM7.46667 20.1953C7.46725 20.3107 7.44333 20.425 7.39631 20.5315C7.3493 20.6381 7.28014 20.7347 7.19289 20.8158L9.39307 22.8857C9.76919 22.5328 10.0675 22.1134 10.2708 21.6517C10.4741 21.19 10.5784 20.6951 10.5778 20.1953H7.46667ZM24.8889 17.8538C24.8889 18.0867 24.7906 18.31 24.6155 18.4747C24.4405 18.6394 24.2031 18.7319 23.9556 18.7319V21.6587C25.0282 21.6587 26.0569 21.2579 26.8154 20.5443C27.5739 19.8308 28 18.863 28 17.8538H24.8889ZM21.4667 9.95131C22.3743 9.95131 23.2448 10.2905 23.8865 10.8943C24.5283 11.4981 24.8889 12.317 24.8889 13.1709H28C28 9.7757 25.0756 7.02446 21.4667 7.02446V9.95131ZM0 17.8538C0 18.863 0.42611 19.8308 1.18459 20.5443C1.94307 21.2579 2.97179 21.6587 4.04444 21.6587V18.7319C3.79691 18.7319 3.55951 18.6394 3.38448 18.4747C3.20944 18.31 3.11111 18.0867 3.11111 17.8538H0Z" fill="white"/>
</svg>
