<svg width="41" height="43" viewBox="0 0 41 43" fill="none" xmlns="http://www.w3.org/2000/svg">
<path d="M9.66667 6H5.33333C4.18406 6 3.08186 6.46094 2.2692 7.28141C1.45655 8.10188 1 9.21468 1 10.375V36.625C1 37.7853 1.45655 38.8981 2.2692 39.7186C3.08186 40.5391 4.18406 41 5.33333 41H17.6768M31.3333 25.6875V34.4375H40M31.3333 19.125V10.375C31.3333 9.21468 30.8768 8.10188 30.0641 7.28141C29.2515 6.46094 28.1493 6 27 6H22.6667" stroke="white" stroke-width="2" stroke-linecap="round" stroke-linejoin="round"/>
<path d="M9 18.2632H17.8571M9 26.8947H15.6429M9 5.31579C9 4.17117 9.46658 3.07343 10.2971 2.26407C11.1276 1.4547 12.254 1 13.4286 1H17.8571C19.0317 1 20.1581 1.4547 20.9886 2.26407C21.8191 3.07343 22.2857 4.17117 22.2857 5.31579C22.2857 6.46041 21.8191 7.55815 20.9886 8.36751C20.1581 9.17688 19.0317 9.63158 17.8571 9.63158H13.4286C12.254 9.63158 11.1276 9.17688 10.2971 8.36751C9.46658 7.55815 9 6.46041 9 5.31579ZM22.2857 33.3684C22.2857 35.6577 23.2189 37.8531 24.8799 39.4719C26.5409 41.0906 28.7938 42 31.1429 42C33.4919 42 35.7448 41.0906 37.4058 39.4719C39.0668 37.8531 40 35.6577 40 33.3684C40 31.0792 39.0668 28.8837 37.4058 27.265C35.7448 25.6462 33.4919 24.7368 31.1429 24.7368C28.7938 24.7368 26.5409 25.6462 24.8799 27.265C23.2189 28.8837 22.2857 31.0792 22.2857 33.3684Z" stroke="white" stroke-width="2" stroke-linecap="round" stroke-linejoin="round"/>
</svg>
