<svg width="36" height="44" viewBox="0 0 36 44" fill="none" xmlns="http://www.w3.org/2000/svg">
<path d="M0 5.26316C0 3.86728 0.561903 2.52858 1.5621 1.54154C2.56229 0.55451 3.91885 0 5.33333 0H26.6667C28.0812 0 29.4377 0.55451 30.4379 1.54154C31.4381 2.52858 32 3.86728 32 5.26316V16.8421C32 17.1213 31.8876 17.389 31.6876 17.5864C31.4875 17.7838 31.2162 17.8947 30.9333 17.8947C30.6504 17.8947 30.3791 17.7838 30.1791 17.5864C29.979 17.389 29.8667 17.1213 29.8667 16.8421V5.26316C29.8667 4.42563 29.5295 3.62241 28.9294 3.03019C28.3293 2.43797 27.5154 2.10526 26.6667 2.10526H5.33333C4.48464 2.10526 3.67071 2.43797 3.07059 3.03019C2.47047 3.62241 2.13333 4.42563 2.13333 5.26316V34.7368C2.13333 35.5744 2.47047 36.3776 3.07059 36.9698C3.67071 37.562 4.48464 37.8947 5.33333 37.8947H20.2667C20.5496 37.8947 20.8209 38.0056 21.0209 38.203C21.221 38.4005 21.3333 38.6682 21.3333 38.9474C21.3333 39.2265 21.221 39.4943 21.0209 39.6917C20.8209 39.8891 20.5496 40 20.2667 40H5.33333C3.91885 40 2.56229 39.4455 1.5621 38.4585C0.561903 37.4714 0 36.1327 0 34.7368V5.26316Z" fill="white"/>
<path d="M30.6668 25.1767C30.9496 25.1767 31.221 25.3007 31.421 25.5213C31.621 25.7419 31.7334 26.0412 31.7334 26.3532V27.9226H32.0939C34.1206 27.9226 36 29.532 36 31.8425C36 32.1545 35.8876 32.4538 35.6876 32.6744C35.4876 32.895 35.2162 33.019 34.9334 33.019C34.6505 33.019 34.3792 32.895 34.1791 32.6744C33.9791 32.4538 33.8667 32.1545 33.8667 31.8425C33.8667 31.1131 33.2139 30.2755 32.0939 30.2755H28.8812C27.9639 30.2755 27.4668 30.9649 27.4668 31.4896C27.4668 31.9908 27.5777 32.1602 27.6439 32.2378C27.742 32.3531 27.9404 32.4872 28.3905 32.6355L33.5467 34.2848C34.1078 34.4684 34.752 34.7507 35.2448 35.3295C35.7717 35.9483 36 36.7507 36 37.6871C36 39.8001 34.2699 41.2542 32.4523 41.2542H31.7334V42.8235C31.7334 43.1356 31.621 43.4348 31.421 43.6554C31.221 43.8761 30.9496 44 30.6668 44C30.3839 44 30.1126 43.8761 29.9125 43.6554C29.7125 43.4348 29.6001 43.1356 29.6001 42.8235V41.2542H29.2396C27.2129 41.2542 25.3335 39.6448 25.3335 37.3342C25.3335 37.0222 25.4459 36.723 25.6459 36.5023C25.846 36.2817 26.1173 36.1578 26.4002 36.1578C26.683 36.1578 26.9544 36.2817 27.1544 36.5023C27.3544 36.723 27.4668 37.0222 27.4668 37.3342C27.4668 38.0636 28.1196 38.9012 29.2396 38.9012H32.4523C33.3696 38.9012 33.8667 38.2118 33.8667 37.6871C33.8667 37.186 33.7558 37.0166 33.6896 36.9389C33.5915 36.8236 33.3931 36.6895 32.943 36.5413L27.7868 34.8919C27.2257 34.7084 26.5815 34.426 26.0887 33.8472C25.5618 33.2284 25.3335 32.426 25.3335 31.4896C25.3335 29.3767 27.0636 27.9226 28.8812 27.9226H29.6001V26.3532C29.6001 26.0412 29.7125 25.7419 29.9125 25.5213C30.1126 25.3007 30.3839 25.1767 30.6668 25.1767ZM6.13381 19.2945C6.13381 18.9825 6.24619 18.6832 6.44623 18.4626C6.64626 18.242 6.91757 18.118 7.20046 18.118H8.26711C8.55001 18.118 8.82131 18.242 9.02135 18.4626C9.22138 18.6832 9.33376 18.9825 9.33376 19.2945C9.33376 19.6065 9.22138 19.9057 9.02135 20.1263C8.82131 20.347 8.55001 20.4709 8.26711 20.4709H7.20046C6.91757 20.4709 6.64626 20.347 6.44623 20.1263C6.24619 19.9057 6.13381 19.6065 6.13381 19.2945ZM12.5337 19.2945C12.5337 18.9825 12.6461 18.6832 12.8461 18.4626C13.0462 18.242 13.3175 18.118 13.6004 18.118H24.2669C24.5497 18.118 24.8211 18.242 25.0211 18.4626C25.2211 18.6832 25.3335 18.9825 25.3335 19.2945C25.3335 19.6065 25.2211 19.9057 25.0211 20.1263C24.8211 20.347 24.5497 20.4709 24.2669 20.4709H13.6004C13.3175 20.4709 13.0462 20.347 12.8461 20.1263C12.6461 19.9057 12.5337 19.6065 12.5337 19.2945ZM6.13381 26.3532C6.13381 26.0412 6.24619 25.7419 6.44623 25.5213C6.64626 25.3007 6.91757 25.1767 7.20046 25.1767H8.26711C8.55001 25.1767 8.82131 25.3007 9.02135 25.5213C9.22138 25.7419 9.33376 26.0412 9.33376 26.3532C9.33376 26.6652 9.22138 26.9644 9.02135 27.1851C8.82131 27.4057 8.55001 27.5296 8.26711 27.5296H7.20046C6.91757 27.5296 6.64626 27.4057 6.44623 27.1851C6.24619 26.9644 6.13381 26.6652 6.13381 26.3532ZM12.5337 26.3532C12.5337 26.0412 12.6461 25.7419 12.8461 25.5213C13.0462 25.3007 13.3175 25.1767 13.6004 25.1767H21.0669C21.3498 25.1767 21.6211 25.3007 21.8211 25.5213C22.0212 25.7419 22.1336 26.0412 22.1336 26.3532C22.1336 26.6652 22.0212 26.9644 21.8211 27.1851C21.6211 27.4057 21.3498 27.5296 21.0669 27.5296H13.6004C13.3175 27.5296 13.0462 27.4057 12.8461 27.1851C12.6461 26.9644 12.5337 26.6652 12.5337 26.3532ZM6.13381 33.4119C6.13381 33.0999 6.24619 32.8007 6.44623 32.58C6.64626 32.3594 6.91757 32.2355 7.20046 32.2355H8.26711C8.55001 32.2355 8.82131 32.3594 9.02135 32.58C9.22138 32.8007 9.33376 33.0999 9.33376 33.4119C9.33376 33.7239 9.22138 34.0232 9.02135 34.2438C8.82131 34.4644 8.55001 34.5884 8.26711 34.5884H7.20046C6.91757 34.5884 6.64626 34.4644 6.44623 34.2438C6.24619 34.0232 6.13381 33.7239 6.13381 33.4119ZM12.5337 33.4119C12.5337 33.0999 12.6461 32.8007 12.8461 32.58C13.0462 32.3594 13.3175 32.2355 13.6004 32.2355H17.867C18.1499 32.2355 18.4212 32.3594 18.6212 32.58C18.8212 32.8007 18.9336 33.0999 18.9336 33.4119C18.9336 33.7239 18.8212 34.0232 18.6212 34.2438C18.4212 34.4644 18.1499 34.5884 17.867 34.5884H13.6004C13.3175 34.5884 13.0462 34.4644 12.8461 34.2438C12.6461 34.0232 12.5337 33.7239 12.5337 33.4119ZM6.73967 4.00057H24.7276C24.9964 4.00057 25.2588 4.00057 25.4807 4.01939C25.7239 4.04292 26.014 4.09469 26.302 4.25704C26.7034 4.48261 27.0298 4.84255 27.2343 5.28526C27.3836 5.60525 27.4284 5.92054 27.4476 6.19113C27.4668 6.43583 27.4668 6.72524 27.4668 7.0217V10.3911C27.4668 10.6875 27.4668 10.9769 27.4476 11.2216C27.4322 11.5363 27.3597 11.8444 27.2343 12.1275C27.0298 12.5702 26.7034 12.9302 26.302 13.1557C26.0453 13.294 25.766 13.374 25.4807 13.391C25.23 13.4079 24.9788 13.4149 24.7276 13.4122H6.73967C6.47088 13.4122 6.20848 13.4122 5.98662 13.3934C5.70117 13.3757 5.42187 13.2948 5.1653 13.1557C4.76391 12.9302 4.43757 12.5702 4.23305 12.1275C4.10765 11.8444 4.03511 11.5363 4.01971 11.2216C4.00445 10.9451 3.99805 10.6681 4.00052 10.3911V7.0217C4.00052 6.72524 4.00051 6.43583 4.01758 6.19113C4.03891 5.92289 4.08585 5.6029 4.23305 5.28526C4.43757 4.84255 4.76391 4.48261 5.1653 4.25704C5.42202 4.11874 5.70132 4.03872 5.98662 4.02174C6.23733 4.00491 6.48851 3.99785 6.73967 4.00057ZM6.14661 6.36759V6.38171C6.13381 6.52053 6.13381 6.71112 6.13381 7.05935V10.3534C6.13039 10.5841 6.13466 10.8148 6.14661 11.0452H6.15941C6.28528 11.0593 6.45808 11.0593 6.7738 11.0593H24.6935C25.0092 11.0593 25.1842 11.0593 25.3079 11.0475H25.3207V11.0311C25.3323 10.8054 25.3366 10.5794 25.3335 10.3534V7.05935C25.3369 6.82867 25.3327 6.59793 25.3207 6.36759H25.3079C25.1033 6.35475 24.8984 6.35004 24.6935 6.35348H6.7738C6.56465 6.3497 6.35545 6.35441 6.14661 6.36759Z" fill="white"/>
</svg>
