<svg width="32" height="30" viewBox="0 0 32 30" fill="none" xmlns="http://www.w3.org/2000/svg">
<path d="M17.7371 18.1738L19.2019 5.3172M17.7371 18.1738L26.905 24.895C27.042 24.9955 27.203 25.0584 27.3719 25.0772C27.5408 25.096 27.7116 25.0701 27.8674 25.0021C28.0231 24.9342 28.1583 24.8265 28.2594 24.6899C28.3605 24.5533 28.4239 24.3925 28.4434 24.2237L30.9947 1.83073C31.014 1.66175 30.9886 1.49067 30.921 1.33462C30.8534 1.17857 30.7459 1.04303 30.6094 0.94158C30.4729 0.840128 30.3122 0.776328 30.1432 0.756572C29.9743 0.736815 29.8032 0.761797 29.647 0.829012L19.2019 5.3172M17.7371 18.1738L6.48755 16.8921M19.2019 5.3172L7.95238 4.03548C6.24749 3.84123 4.53526 4.3322 3.19236 5.40039C1.84947 6.46858 0.985909 8.02648 0.791661 9.73137C0.597413 11.4363 1.08839 13.1485 2.15657 14.4914C3.22476 15.8343 4.78266 16.6978 6.48755 16.8921M6.48755 16.8921L6.73366 25.5482C6.76618 26.3913 7.13013 27.1876 7.74642 27.7639C8.36272 28.3402 9.18155 28.6501 10.025 28.6261C10.8684 28.6021 11.6683 28.2462 12.2508 27.6357C12.8333 27.0253 13.1514 26.2096 13.1359 25.366L12.9159 17.6245L6.48755 16.8921Z" stroke="white" stroke-width="1.5"/>
</svg>
