<svg width="11" height="9" viewBox="0 0 11 9" fill="none" xmlns="http://www.w3.org/2000/svg">
<path d="M3.39573 7.27329L1.11748 4.7897C0.994714 4.65587 0.828213 4.58069 0.654602 4.58069C0.480991 4.58069 0.31449 4.65587 0.191728 4.7897C0.0689668 4.92353 0 5.10503 0 5.29429C0 5.388 0.0169319 5.4808 0.0498288 5.56737C0.0827256 5.65395 0.130943 5.73262 0.191728 5.79888L2.93614 8.79065C3.1922 9.06978 3.60583 9.06978 3.86189 8.79065L10.8083 1.21819C10.931 1.08437 11 0.902859 11 0.713601C11 0.524342 10.931 0.342835 10.8083 0.209009C10.6855 0.0751829 10.519 0 10.3454 0C10.1718 0 10.0053 0.0751829 9.88253 0.209009L3.39573 7.27329Z" fill="white"/>
</svg>
