<svg width="42" height="33" viewBox="0 0 42 33" fill="none" xmlns="http://www.w3.org/2000/svg">
<path d="M12.7006 33H8.67665V12.3203L12.7006 16.3067V33Z" fill="white"/>
<path d="M33.5748 33H29.2994L29.5509 16.3067L33.5748 12.3203V33Z" fill="white"/>
<path d="M1.38323 27.8924C2.21026 28.8069 4.02395 29.6364 4.02395 29.6364V5.46856C4.02395 5.46856 4.50758 4.35482 5.15569 4.09822C6.02091 3.75566 7.41916 4.84568 7.41916 4.84568L18.988 16.3067V20.5423L21.2515 21.6635L23.515 20.5423V15.6838L34.8323 4.84568C34.8323 4.84568 35.6863 4.02806 36.3413 4.09822C37.1008 4.17956 37.7246 5.46856 37.7246 5.46856L38.1018 29.6364C38.1018 29.6364 40.0555 28.8727 40.8683 27.8924C41.5519 27.0679 42 25.4008 42 25.4008V4.84568C42 4.84568 40.7119 1.48516 38.8563 0.485495C36.8286 -0.606869 32.9461 0.485495 32.9461 0.485495L20.6228 12.3203L8.28169 0.485495C8.28169 0.485495 4.20213 0.132385 2.46843 1.60669C1.0055 2.85073 0 5.84229 0 5.84229V25.4008C0 25.4008 0.63529 27.0653 1.38323 27.8924Z" fill="white"/>
</svg>
