<svg width="34" height="36" viewBox="0 0 34 36" fill="none" xmlns="http://www.w3.org/2000/svg">
<path d="M30.2586 13.1242L32.2955 28.2448C32.4009 29.0277 32.4537 29.4191 32.3676 29.7454C32.2521 30.1793 31.9692 30.5496 31.5809 30.7751C31.2892 30.9461 30.8978 30.9989 30.1149 31.1043C29.332 31.2098 28.9405 31.2625 28.6142 31.1765C28.1803 31.061 27.81 30.778 27.5845 30.3898C27.4135 30.0981 27.3608 29.7066 27.2553 28.9237L25.2184 13.8032C25.1129 13.0203 25.0602 12.6288 25.1462 12.3025C25.2618 11.8686 25.5447 11.4983 25.9329 11.2728C26.2246 11.1018 26.6161 11.0491 27.399 10.9436C28.1819 10.8381 28.5734 10.7854 28.8997 10.8714C29.3336 10.987 29.7039 11.2699 29.9294 11.6581C30.1004 11.9498 30.1531 12.3413 30.2586 13.1242Z" stroke="white" stroke-width="1.5" stroke-linejoin="round"/>
<path d="M21.8408 1.42905L26.881 0.750088L27.56 5.79027" stroke="white" stroke-width="1.5" stroke-linecap="round" stroke-linejoin="round"/>
<path d="M26.1541 1.70327C26.1541 1.70327 20.5655 11.0089 3.71695 19.2655" stroke="white" stroke-width="1.5" stroke-linecap="round" stroke-linejoin="round"/>
<path d="M19.2902 20.5887L20.535 29.829C20.6405 30.6119 20.6932 31.0034 20.6072 31.3297C20.4916 31.7636 20.2087 32.1339 19.8205 32.3594C19.5288 32.5304 19.1373 32.5831 18.3544 32.6886C17.5715 32.7941 17.18 32.8468 16.8537 32.7608C16.4199 32.6452 16.0495 32.3623 15.824 31.9741C15.653 31.6824 15.6003 31.2909 15.4948 30.508L14.2501 21.2677C14.1446 20.4847 14.0919 20.0933 14.1779 19.767C14.2934 19.3331 14.5764 18.9628 14.9646 18.7373C15.2563 18.5663 15.6478 18.5135 16.4307 18.4081C17.2136 18.3026 17.605 18.2499 17.9314 18.3359C18.3652 18.4515 18.7355 18.7344 18.961 19.1226C19.132 19.4143 19.1848 19.8058 19.2902 20.5887ZM8.09562 26.3731L8.77459 31.4133C8.88005 32.1962 8.93279 32.5876 8.84674 32.914C8.73121 33.3478 8.44829 33.7181 8.06005 33.9437C7.76834 34.1147 7.37689 34.1674 6.59398 34.2729C5.81107 34.3783 5.41961 34.4311 5.09328 34.345C4.65942 34.2295 4.28911 33.9466 4.06361 33.5583C3.8926 33.2666 3.83987 32.8752 3.7344 32.0922L3.05544 27.0521C2.94997 26.2692 2.89724 25.8777 2.98328 25.5514C3.09881 25.1175 3.38174 24.7472 3.76998 24.5217C4.06168 24.3507 4.45314 24.298 5.23604 24.1925C6.01895 24.087 6.41041 24.0343 6.73674 24.1203C7.1706 24.2359 7.54091 24.5188 7.76641 24.907C7.93742 25.1987 7.99015 25.5902 8.09562 26.3731Z" stroke="white" stroke-width="1.5" stroke-linejoin="round"/>
</svg>
